<svg aria-hidden="true" style="position: absolute; width: 0; height: 0; overflow: hidden;" version="1.1" xmlns="http://www.w3.org/2000/svg" xmlns:xlink="http://www.w3.org/1999/xlink">
<defs>
<symbol id="icon-bx-award" viewBox="0 0 32 32">
<path d="M6.667 11.999c0 2.536 1.020 4.836 2.667 6.52v9.481c0 0.001 0 0.003 0 0.005 0 0.735 0.596 1.331 1.331 1.331 0.218 0 0.424-0.053 0.606-0.146l-0.008 0.003 4.737-2.369 4.737 2.368c0.174 0.090 0.379 0.142 0.597 0.142 0.259 0 0.5-0.074 0.704-0.203l-0.005 0.003c0.393-0.244 0.633-0.672 0.633-1.135v-9.48c1.649-1.677 2.667-3.979 2.667-6.519 0-0.001 0-0.002 0-0.003v0c0-5.145-4.187-9.332-9.333-9.332s-9.333 4.187-9.333 9.332zM16.596 24.14c-0.174-0.089-0.379-0.141-0.597-0.141s-0.423 0.052-0.604 0.144l0.008-0.003-3.403 1.703v-5.423c1.215 0.579 2.568 0.913 4 0.913s2.785-0.333 4-0.913v5.421l-3.404-1.701zM16 5.333c3.675 0 6.667 2.989 6.667 6.665-0.004 3.681-2.986 6.663-6.666 6.668h-0c-3.676 0-6.667-2.991-6.667-6.668 0.005-3.68 2.987-6.662 6.666-6.665h0z"></path>
</symbol>
<symbol id="icon-bx-bar-chart-alt" viewBox="0 0 32 32">
<path d="M17.333 8h2.667v14.667h-2.667zM22.667 4h2.667v18.667h-2.667zM12 12h2.667v10.667h-2.667zM5.333 25.333h21.333v2.667h-21.333zM6.667 16h2.667v6.667h-2.667z"></path>
</symbol>
<symbol id="icon-bx-bar-chart-square" viewBox="0 0 32 32">
<path d="M4 6.667v18.667c0 1.471 1.196 2.667 2.667 2.667h18.667c1.471 0 2.667-1.196 2.667-2.667v-18.667c0-1.471-1.196-2.667-2.667-2.667h-18.667c-1.471 0-2.667 1.196-2.667 2.667zM25.335 25.333h-18.668v-18.667h18.667l0.001 18.667z"></path>
<path d="M14.667 9.333h2.667v13.333h-2.667zM20 13.333h2.667v9.333h-2.667zM9.333 16h2.667v6.667h-2.667z"></path>
</symbol>
<symbol id="icon-bx-buildings" viewBox="0 0 32 32">
<path d="M25.333 2.667h-13.333c-1.471 0-2.667 1.196-2.667 2.667v8h-2.667c-1.471 0-2.667 1.196-2.667 2.667v12c0 0.736 0.597 1.333 1.333 1.333v0h21.333c0.736 0 1.333-0.597 1.333-1.333v0-22.667c0-1.471-1.196-2.667-2.667-2.667zM6.667 16h8v10.667h-8v-10.667zM25.333 26.667h-8v-10.667c0-1.471-1.196-2.667-2.667-2.667h-2.667v-8h13.333v21.333z"></path>
<path d="M14.667 8h2.667v2.667h-2.667zM20 8h2.667v2.667h-2.667zM20 13.375h2.667v2.625h-2.667zM20 18.667h2.667v2.667h-2.667zM9.333 18.668h2.667v2.667h-2.667z"></path>
</symbol>
<symbol id="icon-bx-check-square" viewBox="0 0 32 32">
<path d="M14.577 18.025l-2.968-2.968-1.885 1.885 5.032 5.032 7.603-9.12-2.051-1.709z"></path>
<path d="M25.333 4h-18.667c-1.471 0-2.667 1.196-2.667 2.667v18.667c0 1.471 1.196 2.667 2.667 2.667h18.667c1.471 0 2.667-1.196 2.667-2.667v-18.667c0-1.471-1.196-2.667-2.667-2.667zM6.667 25.333v-18.667h18.667l0.003 18.667h-18.669z"></path>
</symbol>
<symbol id="icon-bx-chevron-left" viewBox="0 0 32 32">
<path d="M17.724 8.391l-7.609 7.609 7.609 7.609 1.885-1.885-5.724-5.724 5.724-5.724z"></path>
</symbol>
<symbol id="icon-bx-chevron-right" viewBox="0 0 32 32">
<path d="M14.276 23.609l7.609-7.609-7.609-7.609-1.885 1.885 5.724 5.724-5.724 5.724z"></path>
</symbol>
<symbol id="icon-bx-chevrons-up" viewBox="0 0 32 32">
<path d="M8.391 15.057l1.885 1.885 5.724-5.724 5.724 5.724 1.885-1.885-7.609-7.609z"></path>
<path d="M8.391 21.724l1.885 1.885 5.724-5.724 5.724 5.724 1.885-1.885-7.609-7.609z"></path>
</symbol>
<symbol id="icon-bx-chevron-up" viewBox="0 0 32 32">
<path d="M8.391 17.724l1.885 1.885 5.724-5.724 5.724 5.724 1.885-1.885-7.609-7.609z"></path>
</symbol>
<symbol id="icon-bx-dollar" viewBox="0 0 32 32">
<path d="M21.332 11.333h2.667c0-3.783-3.673-5.508-6.667-5.905v-2.761h-2.667v2.761c-2.993 0.397-6.667 2.123-6.667 5.905 0 3.608 3.555 5.484 6.667 5.907v6.627c-1.931-0.335-4-1.365-4-3.2h-2.667c0 3.452 3.233 5.492 6.667 5.915v2.752h2.667v-2.76c2.993-0.397 6.667-2.124 6.667-5.907s-3.673-5.508-6.667-5.905v-6.628c1.773 0.319 4 1.255 4 3.2zM10.665 11.333c0-1.945 2.227-2.881 4-3.2v6.399c-1.828-0.337-4-1.336-4-3.199zM21.332 20.667c0 1.945-2.227 2.881-4 3.2v-6.4c1.773 0.319 4 1.255 4 3.2z"></path>
</symbol>
<symbol id="icon-bx-envelope" viewBox="0 0 32 32">
<path d="M26.667 5.333h-21.333c-1.471 0-2.667 1.196-2.667 2.667v16c0 1.471 1.196 2.667 2.667 2.667h21.333c1.471 0 2.667-1.196 2.667-2.667v-16c0-1.471-1.196-2.667-2.667-2.667zM26.667 8v0.681l-10.667 8.297-10.667-8.296v-0.683h21.333zM5.333 24v-11.941l9.848 7.66c0.223 0.176 0.508 0.283 0.819 0.283s0.596-0.107 0.821-0.285l-0.003 0.002 9.848-7.66 0.003 11.941h-21.336z"></path>
</symbol>
<symbol id="icon-bx-home-alt-2" viewBox="0 0 32 32">
<path d="M16.947 3.053c-0.242-0.244-0.577-0.394-0.947-0.394s-0.705 0.151-0.947 0.394l-12 12c-0.244 0.242-0.394 0.577-0.394 0.947s0.151 0.705 0.394 0.947l0 0c0.241 0.239 0.573 0.387 0.939 0.387 0.003 0 0.005 0 0.008-0h1.333v9.333c0 1.473 1.194 2.667 2.667 2.667v0h16c1.473 0 2.667-1.194 2.667-2.667v0-9.333h1.333c0.736 0 1.333-0.597 1.333-1.333v0c0-0.002 0-0.005 0-0.008 0-0.366-0.148-0.698-0.387-0.939l0 0zM8 26.667v-12.787l8-8 8 8v12.787z"></path>
</symbol>
<symbol id="icon-bxl-facebook-circle" viewBox="0 0 32 32">
<path d="M16.001 2.669c-7.363 0-13.332 5.969-13.332 13.332 0 6.653 4.875 12.168 11.249 13.172v-9.317h-3.387v-3.855h3.387v-2.937c0-3.344 1.991-5.188 5.035-5.188 1.459 0 2.987 0.26 2.987 0.26v3.279h-1.685c-1.653 0-2.171 1.029-2.171 2.084v2.5h3.695l-0.591 3.855h-3.104v9.317c6.375-0.999 11.249-6.515 11.249-13.169 0-7.363-5.969-13.332-13.332-13.332z"></path>
</symbol>
<symbol id="icon-bxl-instagram" viewBox="0 0 32 32">
<path d="M15.999 9.836c-3.405 0-6.165 2.76-6.165 6.165s2.76 6.165 6.165 6.165v0c3.405 0 6.165-2.76 6.165-6.165s-2.76-6.165-6.165-6.165v0zM15.999 20.005c-2.212 0-4.005-1.793-4.005-4.005s1.793-4.005 4.005-4.005v0c2.212 0 4.005 1.793 4.005 4.005s-1.793 4.005-4.005 4.005v0z"></path>
<path d="M23.845 9.609c0 0.794-0.644 1.437-1.437 1.437s-1.437-0.644-1.437-1.437c0-0.794 0.644-1.437 1.437-1.437s1.437 0.644 1.437 1.437z"></path>
<path d="M27.377 8.148c-0.638-1.616-1.894-2.872-3.469-3.495l-0.042-0.014c-0.863-0.334-1.862-0.538-2.905-0.56l-0.009-0c-1.284-0.056-1.691-0.072-4.947-0.072s-3.673 0-4.947 0.072c-1.052 0.021-2.049 0.225-2.972 0.58l0.060-0.020c-1.617 0.637-2.873 1.892-3.496 3.468l-0.014 0.042c-0.334 0.864-0.537 1.862-0.559 2.906l-0 0.009c-0.057 1.283-0.075 1.689-0.075 4.947 0 3.256 0 3.671 0.075 4.947 0.020 0.997 0.208 1.981 0.559 2.916 0.639 1.616 1.895 2.872 3.47 3.495l0.042 0.015c0.86 0.347 1.856 0.564 2.899 0.6l0.015 0c1.284 0.056 1.691 0.073 4.947 0.073s3.673 0 4.947-0.073c1.053-0.022 2.051-0.225 2.975-0.579l-0.060 0.020c1.616-0.639 2.872-1.894 3.496-3.469l0.015-0.042c0.351-0.933 0.539-1.917 0.559-2.915 0.057-1.283 0.075-1.689 0.075-4.947s0-3.671-0.075-4.947c-0.017-1.066-0.221-2.080-0.582-3.016l0.020 0.060zM25.753 20.857c-0.009 0.81-0.161 1.583-0.43 2.297l0.015-0.046c-0.414 1.052-1.231 1.868-2.256 2.272l-0.027 0.009c-0.661 0.253-1.424 0.404-2.222 0.415l-0.005 0c-1.267 0.059-1.624 0.073-4.872 0.073-3.251 0-3.583 0-4.873-0.073-0.802-0.010-1.565-0.161-2.271-0.43l0.045 0.015c-1.056-0.411-1.876-1.228-2.283-2.254l-0.009-0.027c-0.25-0.66-0.401-1.423-0.415-2.22l-0-0.006c-0.057-1.267-0.071-1.624-0.071-4.872 0-3.249 0-3.581 0.071-4.873 0.009-0.81 0.161-1.582 0.43-2.296l-0.015 0.046c0.407-1.052 1.24-1.88 2.292-2.283 0.66-0.252 1.423-0.403 2.22-0.415l0.005-0c1.268-0.057 1.624-0.073 4.873-0.073s3.583 0 4.872 0.073c0.802 0.010 1.566 0.161 2.272 0.43l-0.045-0.015c1.052 0.414 1.869 1.231 2.273 2.256l0.009 0.027c0.25 0.66 0.401 1.423 0.415 2.22l0 0.006c0.057 1.268 0.072 1.624 0.072 4.873 0 3.248 0 3.597-0.057 4.872h-0.015z"></path>
</symbol>
<symbol id="icon-bxl-instagram-alt" viewBox="0 0 32 32">
<path d="M27.929 11.073c-0.015-1.065-0.218-2.079-0.579-3.014l0.020 0.060c-0.638-1.617-1.894-2.872-3.469-3.496l-0.042-0.015c-0.863-0.334-1.862-0.538-2.905-0.56l-0.009-0c-1.283-0.057-1.689-0.073-4.945-0.073s-3.673 0-4.947 0.073c-1.052 0.022-2.050 0.226-2.974 0.58l0.060-0.020c-1.617 0.638-2.873 1.894-3.496 3.469l-0.014 0.042c-0.335 0.863-0.538 1.861-0.559 2.905l-0 0.009c-0.057 1.284-0.075 1.691-0.075 4.947s0 3.672 0.075 4.947c0.020 0.997 0.208 1.981 0.559 2.916 0.639 1.616 1.895 2.872 3.47 3.495l0.042 0.015c0.86 0.347 1.856 0.564 2.899 0.6l0.015 0c1.284 0.057 1.691 0.075 4.947 0.075s3.673 0 4.947-0.075c1.052-0.021 2.051-0.224 2.975-0.579l-0.060 0.020c1.616-0.639 2.872-1.895 3.496-3.469l0.015-0.042c0.351-0.933 0.539-1.917 0.559-2.916 0.057-1.283 0.075-1.689 0.075-4.947-0.003-3.256-0.003-3.669-0.077-4.945zM15.992 22.136c-3.405 0-6.164-2.759-6.164-6.164s2.759-6.164 6.164-6.164c3.404 0 6.164 2.76 6.164 6.164s-2.76 6.164-6.164 6.164v0zM22.401 11.017c-0 0-0.001 0-0.001 0-0.793 0-1.436-0.643-1.436-1.436 0-0 0-0.001 0-0.001v0c0-0.793 0.643-1.437 1.437-1.437s1.437 0.643 1.437 1.437v0c0 0.795-0.643 1.437-1.436 1.437z"></path>
<path d="M19.996 15.972c0 2.211-1.793 4.004-4.004 4.004s-4.004-1.793-4.004-4.004c0-2.211 1.793-4.004 4.004-4.004s4.004 1.793 4.004 4.004z"></path>
</symbol>
<symbol id="icon-bxl-pinterest" viewBox="0 0 32 32">
<path d="M15.987 2.667c-7.357 0-13.32 5.964-13.32 13.32 0 5.643 3.511 10.467 8.467 12.408-0.117-1.053-0.221-2.675 0.045-3.824 0.243-1.040 1.563-6.621 1.563-6.621s-0.399-0.799-0.399-1.979c0-1.851 1.073-3.233 2.411-3.233 1.137 0 1.685 0.853 1.685 1.876 0 1.144-0.728 2.852-1.103 4.436-0.313 1.325 0.665 2.407 1.972 2.407 2.367 0 4.188-2.496 4.188-6.1 0-3.189-2.292-5.419-5.564-5.419-3.791 0-6.016 2.843-6.016 5.78 0 1.144 0.441 2.372 0.992 3.040 0.066 0.071 0.107 0.167 0.107 0.272 0 0.039-0.006 0.076-0.016 0.112l0.001-0.003c-0.101 0.42-0.327 1.325-0.369 1.511-0.059 0.244-0.193 0.296-0.447 0.179-1.663-0.775-2.703-3.207-2.703-5.161 0-4.201 3.052-8.060 8.801-8.060 4.621 0 8.212 3.292 8.212 7.693 0 4.592-2.895 8.284-6.912 8.284-1.351 0-2.619-0.7-3.053-1.528l-0.831 3.165c-0.3 1.157-1.112 2.608-1.655 3.493 1.176 0.376 2.529 0.593 3.933 0.593 0.004 0 0.008 0 0.011 0h-0.001c7.356 0 13.32-5.964 13.32-13.32s-5.965-13.321-13.321-13.321z"></path>
</symbol>
<symbol id="icon-bx-map" viewBox="0 0 32 32">
<path d="M16 18.667c2.941 0 5.333-2.392 5.333-5.333s-2.392-5.333-5.333-5.333-5.333 2.392-5.333 5.333 2.392 5.333 5.333 5.333zM16 10.667c1.471 0 2.667 1.196 2.667 2.667s-1.196 2.667-2.667 2.667-2.667-1.196-2.667-2.667 1.196-2.667 2.667-2.667z"></path>
<path d="M15.227 29.085c0.215 0.155 0.483 0.248 0.773 0.248s0.559-0.093 0.777-0.25l-0.004 0.003c0.405-0.287 9.932-7.165 9.893-15.752 0-5.881-4.785-10.667-10.667-10.667s-10.667 4.785-10.667 10.66c-0.039 8.593 9.488 15.472 9.893 15.759zM16 5.333c4.412 0 8 3.588 8 8.007 0.028 5.917-5.851 11.231-8 12.973-2.148-1.744-8.028-7.059-8-12.98 0-4.412 3.588-8 8-8z"></path>
</symbol>
<symbol id="icon-bx-map-alt" viewBox="0 0 32 32">
<path d="M28.596 8.14l-8-4c-0.174-0.089-0.379-0.141-0.597-0.141s-0.423 0.052-0.604 0.144l0.008-0.003-7.403 3.703-7.404-3.703c-0.174-0.089-0.379-0.141-0.596-0.141-0.736 0-1.333 0.597-1.333 1.333 0 0 0 0 0 0.001v-0 17.333c0 0.505 0.285 0.967 0.737 1.193l8 4c0.174 0.089 0.379 0.141 0.597 0.141s0.423-0.052 0.604-0.144l-0.008 0.003 7.403-3.703 7.404 3.701c0.174 0.090 0.379 0.142 0.597 0.142 0.259 0 0.5-0.074 0.704-0.203l-0.005 0.003c0.393-0.244 0.633-0.672 0.633-1.135v-17.333c0-0.505-0.285-0.967-0.737-1.193zM13.333 10.157l5.333-2.667v14.352l-5.333 2.667v-14.352zM5.333 7.491l5.333 2.667v14.352l-5.333-2.667v-14.352zM26.667 24.509l-5.333-2.667v-14.352l5.333 2.667v14.352z"></path>
</symbol>
<symbol id="icon-bx-message-rounded-dots" viewBox="0 0 32 32">
<path d="M14.667 12.667c0 1.105-0.895 2-2 2s-2-0.895-2-2c0-1.105 0.895-2 2-2s2 0.895 2 2z"></path>
<path d="M21.333 12.667c0 1.105-0.895 2-2 2s-2-0.895-2-2c0-1.105 0.895-2 2-2s2 0.895 2 2z"></path>
<path d="M16 2.667c-7.352 0-13.333 4.785-13.333 10.667 0 3.877 2.529 7.353 6.667 9.245v6.755l7.12-5.339c7.143-0.192 12.88-4.901 12.88-10.661 0-5.881-5.981-10.667-13.333-10.667zM16 21.333h-0.444l-3.556 2.667v-3.223l-0.855-0.329c-3.584-1.38-5.812-4.107-5.812-7.115 0-4.412 4.785-8 10.667-8s10.667 3.588 10.667 8-4.785 8-10.667 8z"></path>
</symbol>
<symbol id="icon-bx-moon" viewBox="0 0 32 32">
<path d="M27.656 17.393c-0.83 0.229-1.784 0.361-2.768 0.361-0 0-0.001 0-0.001 0h0c-2.847 0-5.52-1.107-7.528-3.115-1.923-1.934-3.112-4.6-3.112-7.544 0-0.979 0.131-1.927 0.378-2.828l-0.018 0.075c0.028-0.103 0.045-0.221 0.045-0.343 0-0.736-0.597-1.333-1.333-1.333-0.123 0-0.241 0.017-0.354 0.048l0.009-0.002c-2.353 0.64-4.374 1.837-5.986 3.443l0-0c-5.197 5.197-5.197 13.657 0 18.857 2.4 2.413 5.723 3.907 9.395 3.907 0.012 0 0.024-0 0.037-0h-0.002c0.011 0 0.024 0 0.037 0 3.67 0 6.991-1.493 9.389-3.905l0.001-0.001c1.607-1.612 2.805-3.634 3.422-5.894l0.022-0.094c0.028-0.103 0.045-0.22 0.045-0.342 0-0.737-0.598-1.335-1.335-1.335-0.122 0-0.239 0.016-0.351 0.047l0.009-0.002zM23.96 23.128c-1.919 1.93-4.577 3.124-7.513 3.124-0.010 0-0.020 0-0.030-0h0.002c-0.008 0-0.017 0-0.026 0-2.938 0-5.597-1.195-7.517-3.125l-0-0c-4.157-4.159-4.157-10.927 0-15.085 0.784-0.783 1.689-1.443 2.687-1.95l0.060-0.028c-0.025 0.309-0.040 0.669-0.040 1.033 0 3.681 1.487 7.014 3.894 9.432l-0.001-0c2.406 2.408 5.731 3.897 9.404 3.897 0.373 0 0.742-0.015 1.108-0.045l-0.048 0.003c-0.537 1.056-1.198 1.961-1.979 2.746l0-0z"></path>
</symbol>
<symbol id="icon-bx-phone" viewBox="0 0 32 32">
<path d="M23.609 16.391c-0.241-0.242-0.574-0.391-0.943-0.391s-0.702 0.149-0.943 0.391l-2.125 2.125c-0.985-0.293-2.824-0.96-3.989-2.125s-1.832-3.004-2.125-3.989l2.125-2.125c0.242-0.241 0.391-0.574 0.391-0.943s-0.149-0.702-0.391-0.943l-5.333-5.333c-0.241-0.242-0.574-0.391-0.943-0.391s-0.702 0.149-0.943 0.391l-3.616 3.616c-0.507 0.507-0.792 1.203-0.781 1.913 0.031 1.899 0.533 8.493 5.731 13.691s11.792 5.699 13.692 5.731h0.037c0.704 0 1.369-0.277 1.873-0.781l3.616-3.616c0.242-0.241 0.391-0.574 0.391-0.943s-0.149-0.702-0.391-0.943l-5.333-5.335zM23.44 25.34c-1.664-0.028-7.357-0.475-11.831-4.949-4.488-4.488-4.923-10.201-4.949-11.832l2.673-2.673 3.448 3.448-1.724 1.724c-0.242 0.241-0.391 0.575-0.391 0.943 0 0.097 0.010 0.191 0.030 0.282l-0.002-0.009c0.032 0.153 0.815 3.789 3.028 6.003s5.849 2.996 6.003 3.028c0.084 0.019 0.179 0.030 0.278 0.030 0.367 0 0.699-0.149 0.938-0.391l1.725-1.724 3.448 3.448-2.675 2.673z"></path>
</symbol>
<symbol id="icon-bx-phone-call" viewBox="0 0 32 32">
<path d="M22.093 29.333c0.005 0 0.010 0 0.015 0 0.739 0 1.408-0.301 1.891-0.787l3.613-3.613c0.24-0.241 0.388-0.573 0.388-0.94s-0.148-0.699-0.388-0.94l-5.333-5.333c-0.241-0.24-0.573-0.388-0.94-0.388s-0.699 0.148-0.94 0.388l-2.133 2.12c-1.548-0.421-2.889-1.153-4.012-2.13l0.012 0.010c-0.964-1.112-1.696-2.453-2.103-3.929l-0.017-0.071 2.12-2.133c0.24-0.241 0.388-0.573 0.388-0.94s-0.148-0.699-0.388-0.94l-5.333-5.333c-0.241-0.24-0.573-0.388-0.94-0.388s-0.699 0.148-0.94 0.388l0-0-3.6 3.627c-0.486 0.483-0.787 1.152-0.787 1.891 0 0.005 0 0.011 0 0.016v-0.001c0.13 5.336 2.292 10.144 5.738 13.699l-0.005-0.005c3.55 3.441 8.357 5.603 13.668 5.733l0.025 0zM8 7.213l3.453 3.453-1.72 1.72c-0.26 0.244-0.422 0.59-0.422 0.973 0 0.085 0.008 0.168 0.023 0.249l-0.001-0.008c0.532 2.329 1.604 4.355 3.079 6.014l-0.012-0.014c1.644 1.465 3.67 2.537 5.91 3.049l0.090 0.017c0.082 0.018 0.176 0.028 0.273 0.028 0.367 0 0.699-0.148 0.941-0.388l-0 0 1.72-1.76 3.453 3.453-2.667 2.667c-4.606-0.122-8.755-1.985-11.832-4.952l0.005 0.005c-2.969-3.073-4.837-7.227-4.96-11.816l-0-0.024zM26.667 14.667h2.667c0.002-0.076 0.003-0.166 0.003-0.256 0-6.487-5.259-11.747-11.747-11.747-0.090 0-0.18 0.001-0.269 0.003l0.013-0v2.667c0.093-0.003 0.202-0.005 0.312-0.005 4.985 0 9.027 4.041 9.027 9.027 0 0.11-0.002 0.219-0.006 0.328l0-0.016z"></path>
<path d="M17.333 10.667c2.8 0 4 1.2 4 4h2.667c0-4.293-2.373-6.667-6.667-6.667z"></path>
</symbol>
<symbol id="icon-bx-plus" viewBox="0 0 32 32">
<path d="M25.333 14.667h-8v-8h-2.667v8h-8v2.667h8v8h2.667v-8h8z"></path>
</symbol>
<symbol id="icon-bx-plus-medical" viewBox="0 0 32 32">
<path d="M20 2.684h-8v9.316h-9.333v8h9.333v9.316h8v-9.316h9.333v-8h-9.333z"></path>
</symbol>
<symbol id="icon-bxs-buildings" viewBox="0 0 32 32">
<path d="M9.333 18.668h2.667v2.667h-2.667z"></path>
<path d="M25.333 2.667h-10.667c-1.473 0-2.667 1.194-2.667 2.667v0 8h-5.333c-1.471 0-2.667 1.196-2.667 2.667v12c0 0.736 0.597 1.333 1.333 1.333v0h21.333c0.736 0 1.333-0.597 1.333-1.333v0-22.667c0-1.473-1.194-2.667-2.667-2.667v0zM6.667 26.667v-10.667h8v10.667h-8zM18.667 10.667h-2.667v-2.667h2.667v2.667zM24 21.333h-2.667v-2.667h2.667v2.667zM24 16h-2.667v-2.667h2.667v2.667zM24 10.667h-2.667v-2.667h2.667v2.667z"></path>
</symbol>
<symbol id="icon-bxs-checkbox" viewBox="0 0 32 32">
<path d="M9.333 25.333h13.333c1.473 0 2.667-1.194 2.667-2.667v0-13.333c0-1.473-1.194-2.667-2.667-2.667v0h-13.333c-1.473 0-2.667 1.194-2.667 2.667v0 13.333c0 1.473 1.194 2.667 2.667 2.667v0z"></path>
</symbol>
<symbol id="icon-bxs-checkbox-checked" viewBox="0 0 32 32">
<path d="M9.333 6.667c-1.473 0-2.667 1.194-2.667 2.667v0 13.333c0 1.473 1.194 2.667 2.667 2.667v0h13.333c1.473 0 2.667-1.194 2.667-2.667v0-13.333c0-1.473-1.194-2.667-2.667-2.667v0h-13.333zM14.667 20.552l-3.609-3.609 1.885-1.885 1.724 1.724 5.057-5.057 1.885 1.885-6.943 6.943z"></path>
</symbol>
<symbol id="icon-bxs-check-square" viewBox="0 0 32 32">
<path d="M25.333 4h-18.667c-1.471 0-2.667 1.196-2.667 2.667v18.667c0 1.471 1.196 2.667 2.667 2.667h18.667c1.471 0 2.667-1.196 2.667-2.667v-18.667c0-1.471-1.196-2.667-2.667-2.667zM14.756 21.975l-5.032-5.032 1.885-1.885 2.968 2.968 5.732-6.879 2.049 1.707-7.603 9.121z"></path>
</symbol>
<symbol id="icon-bxs-down-arrow" viewBox="0 0 32 32">
<path d="M14.904 26.092c0.243 0.35 0.643 0.576 1.096 0.576s0.853-0.226 1.093-0.572l0.003-0.004 12-17.333c0.149-0.212 0.238-0.476 0.238-0.76 0-0.736-0.596-1.332-1.332-1.332-0.001 0-0.001 0-0.002 0h-24c-0.735 0.003-1.33 0.6-1.33 1.336 0 0.283 0.088 0.545 0.237 0.76l-0.003-0.004 12 17.333z"></path>
</symbol>
<symbol id="icon-bxs-envelope" viewBox="0 0 32 32">
<path d="M26.667 5.333h-21.333c-1.473 0-2.667 1.194-2.667 2.667v0 16c0 1.473 1.194 2.667 2.667 2.667v0h21.333c1.473 0 2.667-1.194 2.667-2.667v0-16c0-1.473-1.194-2.667-2.667-2.667v0zM26.667 11.6l-10.667 7.112-10.667-7.112v-3.204l10.667 7.111 10.667-7.111v3.204z"></path>
</symbol>
<symbol id="icon-bx-shield-plus" viewBox="0 0 32 32">
<path d="M15.507 29.213c0.144 0.072 0.313 0.115 0.492 0.12l0.002 0c0.198-0.001 0.386-0.045 0.555-0.123l-0.008 0.003c12.787-5.653 11.453-19.88 11.453-20.013-0.051-0.463-0.332-0.851-0.726-1.050l-0.008-0.004-10.667-5.333c-0.175-0.090-0.381-0.143-0.6-0.143s-0.425 0.053-0.607 0.146l0.008-0.003-10.667 5.333c-0.401 0.202-0.683 0.59-0.733 1.047l-0.001 0.006c0 0.133-1.227 14.36 11.507 20.013zM6.667 10.173l9.333-4.68 9.333 4.68c0.067 2.667-0.36 12-9.333 16.36-8.987-4.36-9.413-13.68-9.333-16.36z"></path>
<path d="M14.747 21.333h2.667v-4h4.013v-2.667h-4.013v-4h-2.667v4h-4v2.667h4v4z"></path>
</symbol>
<symbol id="icon-bxs-home-alt-2" viewBox="0 0 32 32">
<path d="M16.987 3.093c-0.245-0.269-0.596-0.437-0.987-0.437s-0.742 0.168-0.986 0.435l-0.001 0.001-12 13.333c-0.22 0.237-0.356 0.556-0.356 0.907 0 0.736 0.597 1.333 1.333 1.333 0.003 0 0.006 0 0.010-0h2.666v9.333c0 0.736 0.597 1.333 1.333 1.333v0h16c0.736 0 1.333-0.597 1.333-1.333v0-9.333h2.667c0.736 0 1.333-0.597 1.333-1.333v0c0-0.003 0-0.006 0-0.010 0-0.346-0.132-0.661-0.348-0.898l0.001 0.001z"></path>
</symbol>
<symbol id="icon-bxs-left-arrow" viewBox="0 0 32 32">
<path d="M5.908 17.096l17.333 12c0.212 0.148 0.475 0.237 0.759 0.237 0.736 0 1.333-0.597 1.333-1.333v-24c0-0 0-0.001 0-0.001 0-0.736-0.597-1.333-1.333-1.333-0.284 0-0.547 0.089-0.763 0.24l0.004-0.003-17.333 12c-0.348 0.245-0.572 0.645-0.572 1.097s0.224 0.852 0.568 1.094l0.004 0.003z"></path>
</symbol>
<symbol id="icon-bxs-map" viewBox="0 0 32 32">
<path d="M16 2.667c-5.881 0-10.667 4.785-10.667 10.66-0.039 8.593 10.261 15.719 10.667 16.007 0 0 10.705-7.413 10.667-16 0-5.881-4.785-10.667-10.667-10.667zM16 18.667c-2.947 0-5.333-2.387-5.333-5.333s2.387-5.333 5.333-5.333 5.333 2.387 5.333 5.333-2.387 5.333-5.333 5.333z"></path>
</symbol>
<symbol id="icon-bxs-map-alt" viewBox="0 0 32 32">
<path d="M12 9.176l-9.333-4.667v17.648l9.333 4.667 8-4 9.333 4.667v-17.648l-9.333-4.667-8 4zM20 20l-8 4v-12l8-4v12z"></path>
</symbol>
<symbol id="icon-bxs-message-rounded-dots" viewBox="0 0 32 32">
<path d="M16 2.667c-7.352 0-13.333 4.785-13.333 10.667 0 3.877 2.529 7.355 6.667 9.245v6.755l7.12-5.339c7.143-0.192 12.88-4.901 12.88-10.661 0-5.881-5.981-10.667-13.333-10.667zM12.667 14.667c-1.105 0-2-0.895-2-2s0.895-2 2-2v0c1.105 0 2 0.895 2 2s-0.895 2-2 2v0zM19.333 14.667c-1.105 0-2-0.895-2-2s0.895-2 2-2v0c1.105 0 2 0.895 2 2s-0.895 2-2 2v0z"></path>
</symbol>
<symbol id="icon-bxs-moon" viewBox="0 0 32 32">
<path d="M16 15.743c-2.171-2.172-3.514-5.172-3.514-8.486 0-1.656 0.335-3.234 0.942-4.669l-0.030 0.079c-2.691 0.542-5.019 1.834-6.826 3.646l-0 0c-5.207 5.207-5.207 13.649 0 18.856 5.208 5.208 13.649 5.207 18.857 0 1.812-1.807 3.104-4.135 3.632-6.74l0.014-0.085c-1.356 0.577-2.934 0.912-4.59 0.912-3.314 0-6.314-1.343-8.486-3.514l0 0z"></path>
</symbol>
<symbol id="icon-bxs-phone-call" viewBox="0 0 32 32">
<path d="M26.667 14.665h2.667c0-6.84-5.164-11.999-12.013-11.999v2.667c5.416 0 9.347 3.924 9.347 9.332z"></path>
<path d="M17.333 10.667c2.804 0 4 1.196 4 4h2.667c0-4.3-2.367-6.667-6.667-6.667v2.667zM21.896 17.924c-0.236-0.215-0.552-0.347-0.898-0.347-0.375 0-0.714 0.155-0.957 0.404l-0 0-3.191 3.281c-0.768-0.147-2.312-0.628-3.901-2.213-1.589-1.591-2.071-3.139-2.213-3.901l3.279-3.192c0.25-0.243 0.405-0.582 0.405-0.957 0-0.346-0.132-0.662-0.348-0.899l-4.926-5.416c-0.245-0.269-0.596-0.437-0.987-0.437-0.332 0-0.636 0.121-0.869 0.322l0.002-0.001-2.893 2.481c-0.223 0.224-0.367 0.526-0.386 0.862l-0 0.004c-0.020 0.333-0.401 8.229 5.721 14.355 5.341 5.34 12.032 5.731 13.875 5.731 0.269 0 0.435-0.008 0.479-0.011 0.339-0.020 0.641-0.164 0.864-0.388l0-0 2.48-2.895c0.2-0.232 0.322-0.536 0.322-0.868 0-0.39-0.168-0.742-0.435-0.985l-0.001-0.001-5.419-4.928z"></path>
</symbol>
<symbol id="icon-bxs-right-arrow" viewBox="0 0 32 32">
<path d="M7.381 29.181c0.179 0.095 0.392 0.151 0.618 0.151 0.284 0 0.547-0.088 0.764-0.239l-0.004 0.003 17.333-12c0.349-0.244 0.574-0.644 0.574-1.096s-0.225-0.852-0.57-1.093l-0.004-0.003-17.333-12c-0.212-0.148-0.475-0.237-0.759-0.237-0.736 0-1.333 0.597-1.333 1.333v24c0 0 0 0 0 0 0 0.51 0.287 0.953 0.707 1.178l0.007 0.003z"></path>
</symbol>
<symbol id="icon-bxs-shield-plus" viewBox="0 0 32 32">
<path d="M27.24 7.68l-10.667-4.747c-0.161-0.074-0.349-0.117-0.547-0.117s-0.386 0.043-0.555 0.121l0.008-0.003-10.667 4.747c-0.463 0.212-0.78 0.668-0.787 1.199v0.001c0 3.16 0.587 14.4 11.347 20.147 0.191 0.112 0.421 0.179 0.667 0.179s0.475-0.066 0.673-0.182l-0.006 0.003c10.667-5.733 11.44-16.947 11.427-20.133-0.020-0.56-0.383-1.031-0.884-1.21l-0.009-0.003zM21.333 17.013h-4v4h-2.667v-4h-4v-2.667h4v-4h2.667v4h4z"></path>
</symbol>
<symbol id="icon-bxs-up-arrow" viewBox="0 0 32 32">
<path d="M4 25.333h24c0.736-0.002 1.332-0.6 1.332-1.336 0-0.283-0.088-0.545-0.237-0.76l0.003 0.004-12-17.333c-0.497-0.719-1.695-0.719-2.193 0l-12 17.333c-0.149 0.212-0.238 0.476-0.238 0.76 0 0.736 0.596 1.332 1.332 1.332 0.001 0 0.001 0 0.002 0h-0z"></path>
</symbol>
<symbol id="icon-bxs-video" viewBox="0 0 32 32">
<path d="M24 9.333c0-1.471-1.196-2.667-2.667-2.667h-16c-1.471 0-2.667 1.196-2.667 2.667v13.333c0 1.471 1.196 2.667 2.667 2.667h16c1.471 0 2.667-1.196 2.667-2.667v-4.444l5.333 4.444v-13.333l-5.333 4.444v-4.444z"></path>
</symbol>
<symbol id="icon-bxs-video-off" viewBox="0 0 32 32">
<path d="M5.333 25.333h14.505l-16.979-16.98c-0.121 0.29-0.192 0.626-0.193 0.979v13.334c0 1.471 1.196 2.667 2.667 2.667zM24 9.333c0-1.471-1.196-2.667-2.667-2.667h-12.781l-3.609-3.609-1.885 1.885 24 24 1.885-1.885-4.943-4.943v-3.892l5.333 4.444v-13.333l-5.333 4.444v-4.444z"></path>
</symbol>
<symbol id="icon-bxs-x-square" viewBox="0 0 32 32">
<path d="M28 6.667c0-1.473-1.194-2.667-2.667-2.667v0h-18.667c-1.473 0-2.667 1.194-2.667 2.667v0 18.667c0 1.473 1.194 2.667 2.667 2.667v0h18.667c1.473 0 2.667-1.194 2.667-2.667v0-18.667zM21.609 19.724l-1.885 1.885-3.724-3.724-3.724 3.724-1.885-1.885 3.724-3.724-3.724-3.724 1.885-1.885 3.724 3.724 3.724-3.724 1.885 1.885-3.724 3.724 3.724 3.724z"></path>
</symbol>
</defs>
</svg>
